<svg xmlns="http://www.w3.org/2000/svg" xmlns:xlink="http://www.w3.org/1999/xlink" width="261" height="84.966" viewBox="0 0 261 84.966">
  <defs>
    <linearGradient id="linear-gradient" x1="-0.175" y1="1.273" x2="0.737" y2="0.092" gradientUnits="objectBoundingBox">
      <stop offset="0.11" stop-color="#37e2aa"/>
      <stop offset="0.48" stop-color="#3ba3eb"/>
      <stop offset="1" stop-color="#5943ca"/>
    </linearGradient>
    <linearGradient id="linear-gradient-2" y1="0.5" x2="1.376" y2="0.5" gradientUnits="objectBoundingBox">
      <stop offset="0" stop-color="#24dac2"/>
      <stop offset="0.48" stop-color="#3baae4"/>
      <stop offset="1" stop-color="#5943ca"/>
    </linearGradient>
    <linearGradient id="linear-gradient-3" x2="1" xlink:href="#linear-gradient-2"/>
  </defs>
  <g id="Group_849" data-name="Group 849" transform="translate(0 -10)">
    <path id="Path_6973" data-name="Path 6973" d="M-165.9-34.726a2.251,2.251,0,0,1,.167.8,1.894,1.894,0,0,1-.569,1.423,1.82,1.82,0,0,1-1.3.552,1.754,1.754,0,0,1-1.087-.368,2.391,2.391,0,0,1-.754-1l-1.739-4.047h-9.968l-1.739,4.081a2.058,2.058,0,0,1-.719.987,1.76,1.76,0,0,1-1.054.351,1.753,1.753,0,0,1-1.321-.469,1.754,1.754,0,0,1-.452-1.27,2.212,2.212,0,0,1,.1-.636l8.328-20.006a2.22,2.22,0,0,1,.8-1.037,1.752,1.752,0,0,1,1.2-.3,1.959,1.959,0,0,1,1.12.351,1.982,1.982,0,0,1,.753.987Zm-13.614-6.489h6.69l-3.379-7.825Zm24.086-9.132a10.128,10.128,0,0,1,4.583.886,2.656,2.656,0,0,1,1.739,2.358,2.02,2.02,0,0,1-.435,1.288,1.38,1.38,0,0,1-1.137.552,2.137,2.137,0,0,1-.87-.152,3.123,3.123,0,0,1-.652-.4,4.653,4.653,0,0,0-.619-.418,4.2,4.2,0,0,0-.987-.3,5.5,5.5,0,0,0-1.054-.134,5.058,5.058,0,0,0-3.93,1.555,5.789,5.789,0,0,0-1.423,4.065,5.731,5.731,0,0,0,1.438,4,4.741,4.741,0,0,0,3.679,1.589,5.691,5.691,0,0,0,2.442-.4,4.522,4.522,0,0,0,.552-.351,3.8,3.8,0,0,1,.652-.385,1.808,1.808,0,0,1,.736-.134,1.694,1.694,0,0,1,1.321.535,1.964,1.964,0,0,1,.485,1.372,1.936,1.936,0,0,1-.936,1.505,7.294,7.294,0,0,1-2.475,1.12,12.454,12.454,0,0,1-3.278.418,8.472,8.472,0,0,1-4.533-1.2,8.1,8.1,0,0,1-3.027-3.328,10.366,10.366,0,0,1-1.071-4.733,10.1,10.1,0,0,1,1.12-4.817,8.245,8.245,0,0,1,3.128-3.295,8.763,8.763,0,0,1,4.55-1.185Zm25.489,8.864a1.717,1.717,0,0,1-.636,1.3,2.128,2.128,0,0,1-1.4.5h-11.039a5.044,5.044,0,0,0,1.84,3.094,5.143,5.143,0,0,0,3.244,1.12,7.191,7.191,0,0,0,2.141-.251,5.575,5.575,0,0,0,1.22-.535q.452-.285.619-.385a2.552,2.552,0,0,1,1.137-.3,1.642,1.642,0,0,1,1.2.5,1.6,1.6,0,0,1,.5,1.169,2.087,2.087,0,0,1-.935,1.641,7.992,7.992,0,0,1-2.51,1.3,9.8,9.8,0,0,1-3.178.535,9.866,9.866,0,0,1-4.9-1.169,8.172,8.172,0,0,1-3.228-3.228,9.413,9.413,0,0,1-1.137-4.633,10.256,10.256,0,0,1,1.2-5.051,8.55,8.55,0,0,1,3.178-3.328,8.214,8.214,0,0,1,4.214-1.154,7.813,7.813,0,0,1,4.166,1.2,9,9,0,0,1,3.128,3.245,8.723,8.723,0,0,1,1.169,4.413Zm-8.463-5.183q-3.88,0-4.583,3.646h8.764v-.234a3.458,3.458,0,0,0-1.372-2.409,4.341,4.341,0,0,0-2.811-1.005Zm21.107-3.679a2.558,2.558,0,0,1,1.689.569,1.7,1.7,0,0,1,.683,1.336,2.072,2.072,0,0,1-.535,1.555,1.765,1.765,0,0,1-1.27.518,3.337,3.337,0,0,1-1.137-.234q-.1-.034-.452-.134a2.729,2.729,0,0,0-.753-.1,2.973,2.973,0,0,0-1.672.535,3.905,3.905,0,0,0-1.322,1.626,5.973,5.973,0,0,0-.518,2.591v7.927a2.006,2.006,0,0,1-.569,1.455,1.92,1.92,0,0,1-1.439.585,1.92,1.92,0,0,1-1.439-.585,2.006,2.006,0,0,1-.569-1.455V-47.972a2.006,2.006,0,0,1,.569-1.455,1.92,1.92,0,0,1,1.439-.583,1.92,1.92,0,0,1,1.439.585,2.006,2.006,0,0,1,.569,1.455v.435a5.068,5.068,0,0,1,2.208-2.09,6.788,6.788,0,0,1,3.077-.722Zm13.848,14.45a1.113,1.113,0,0,1,.853.452,1.768,1.768,0,0,1,.385,1.188,1.787,1.787,0,0,1-.987,1.524,4.1,4.1,0,0,1-2.225.614,6.485,6.485,0,0,1-3.5-.886q-1.423-.886-1.423-3.763V-46h-1.539a1.816,1.816,0,0,1-1.338-.535,1.816,1.816,0,0,1-.535-1.338,1.721,1.721,0,0,1,.535-1.288,1.847,1.847,0,0,1,1.338-.518h1.539v-2.141a1.976,1.976,0,0,1,.585-1.455,1.976,1.976,0,0,1,1.455-.585,1.88,1.88,0,0,1,1.4.583,2.006,2.006,0,0,1,.569,1.455v2.141h2.375a1.816,1.816,0,0,1,1.338.535,1.816,1.816,0,0,1,.535,1.338,1.72,1.72,0,0,1-.535,1.288,1.847,1.847,0,0,1-1.338.518h-2.375v9.065a1.28,1.28,0,0,0,.368,1.02,1.484,1.484,0,0,0,1,.318,2.87,2.87,0,0,0,.736-.134,2,2,0,0,1,.77-.167Zm21.776-18.5a1.791,1.791,0,0,1,1.037,1.706,2.265,2.265,0,0,1-.5,1.372,1.652,1.652,0,0,1-1.372.7,2.412,2.412,0,0,1-1.137-.3,8.24,8.24,0,0,0-3.547-.776,8.13,8.13,0,0,0-4.081.989,6.691,6.691,0,0,0-2.676,2.776,8.706,8.706,0,0,0-.936,4.1,7.924,7.924,0,0,0,2.124,5.987A7.705,7.705,0,0,0-87.2-35.8a7.7,7.7,0,0,0,3.546-.769,2.688,2.688,0,0,1,1.071-.268,1.836,1.836,0,0,1,1.474.736,2.17,2.17,0,0,1,.5,1.372,1.814,1.814,0,0,1-.268.97,1.741,1.741,0,0,1-.772.669,12.25,12.25,0,0,1-5.551,1.3,13.141,13.141,0,0,1-6.021-1.388,10.683,10.683,0,0,1-4.383-4.1,12.439,12.439,0,0,1-1.639-6.555,12.072,12.072,0,0,1,1.555-6.122,11.042,11.042,0,0,1,4.3-4.233A12.537,12.537,0,0,1-87.195-55.7a11.912,11.912,0,0,1,5.518,1.307Zm21.443,13.347a9.561,9.561,0,0,1-1.2,4.8,8.507,8.507,0,0,1-3.295,3.295,9.253,9.253,0,0,1-4.6,1.169,9.226,9.226,0,0,1-4.616-1.169,8.541,8.541,0,0,1-3.278-3.295,9.56,9.56,0,0,1-1.2-4.8,9.56,9.56,0,0,1,1.2-4.8,8.661,8.661,0,0,1,3.278-3.312,9.124,9.124,0,0,1,4.616-1.188,9.151,9.151,0,0,1,4.6,1.188,8.626,8.626,0,0,1,3.295,3.312,9.561,9.561,0,0,1,1.2,4.8Zm-4.014,0a6.131,6.131,0,0,0-.685-2.927,5.046,5.046,0,0,0-1.84-1.99,4.827,4.827,0,0,0-2.559-.7,4.827,4.827,0,0,0-2.559.7,5.046,5.046,0,0,0-1.84,1.99,6.131,6.131,0,0,0-.685,2.927,6.032,6.032,0,0,0,.685,2.91,5.074,5.074,0,0,0,1.84,1.974,4.827,4.827,0,0,0,2.559.7,4.827,4.827,0,0,0,2.559-.7,5.074,5.074,0,0,0,1.84-1.974,6.032,6.032,0,0,0,.682-2.914Zm28-9.3q3.312,0,4.583,2.024a10.5,10.5,0,0,1,1.27,5.6v8.56a2.006,2.006,0,0,1-.569,1.455,1.92,1.92,0,0,1-1.443.585,1.92,1.92,0,0,1-1.439-.585,2.006,2.006,0,0,1-.569-1.455V-42.72a5.072,5.072,0,0,0-.719-2.893,2.837,2.837,0,0,0-2.525-1.054,3.823,3.823,0,0,0-2.927,1.12,3.964,3.964,0,0,0-1.054,2.827v8.564a2.006,2.006,0,0,1-.569,1.455,1.92,1.92,0,0,1-1.439.585,1.92,1.92,0,0,1-1.439-.585,2.006,2.006,0,0,1-.567-1.455V-42.72a5.072,5.072,0,0,0-.719-2.893A2.837,2.837,0,0,0-48.9-46.667a3.823,3.823,0,0,0-2.927,1.12,3.963,3.963,0,0,0-1.054,2.827v8.564a2.006,2.006,0,0,1-.567,1.455,1.92,1.92,0,0,1-1.439.585A1.92,1.92,0,0,1-56.32-32.7a2.006,2.006,0,0,1-.57-1.455V-47.972a2.006,2.006,0,0,1,.569-1.455,1.92,1.92,0,0,1,1.439-.583,1.92,1.92,0,0,1,1.44.583,2.006,2.006,0,0,1,.569,1.455v.535a8.169,8.169,0,0,1,2.291-2.057,5.793,5.793,0,0,1,3.094-.853q4.214,0,5.386,3.679a7.876,7.876,0,0,1,2.325-2.541,5.828,5.828,0,0,1,3.527-1.139Z" transform="translate(290.394 110.043)" fill="#2d2d2d" stroke="#2d2d2d" stroke-width="2"/>
    <g id="Camada_2" data-name="Camada 2" transform="translate(0 10)">
      <g id="Camada_1" data-name="Camada 1">
        <path id="Path_6962" data-name="Path 6962" d="M280.885,1.376a32.216,32.216,0,0,1-4.128,12.361,37.543,37.543,0,0,1-7.978,9.759.615.615,0,0,0-.238.569,13.876,13.876,0,0,1-.457,5.166,11.858,11.858,0,0,1-5.35,7.072,11.394,11.394,0,0,1-2.906,1.257,14.19,14.19,0,0,0,1.046-8.51c-.649.323-1.257.649-1.88.934h-.031a11.973,11.973,0,0,0-5.65-9.844,11.789,11.789,0,0,0-5.765-1.772c.019-.042.042-.084.069-.135.55-.93,1.13-1.841,1.718-2.8a13.96,13.96,0,0,0-8.56-.25,10.936,10.936,0,0,1,1.945-2.952,12.365,12.365,0,0,1,9-3.967,13.557,13.557,0,0,1,3.694.346.665.665,0,0,0,.634-.177,38.735,38.735,0,0,1,9.309-5.623A34.324,34.324,0,0,1,276.8.039C277.761,0,278.727,0,279.683,0S280.989.434,280.885,1.376Z" transform="translate(-148.228)" fill="url(#linear-gradient)"/>
        <path id="Path_6963" data-name="Path 6963" d="M15.279,146.455q5.958,5.945,11.915,11.915L14.776,170.735a9.01,9.01,0,0,1-6.369,2.752Q4.225,169.309,0,165.123A8.352,8.352,0,0,1,1.988,159.5c.269-.315.559-.615.853-.907l12.3-12.277Z" transform="translate(0.005 -88.781)" fill="#fff"/>
        <path id="Path_6964" data-name="Path 6964" d="M139.123,71.963c-.269.311-.559.61-.85.9L119.209,91.831l-1.445,1.438-3.482,3.459-.384.384q-9.813,9.756-19.6,19.512a8.766,8.766,0,0,1-7.222,2.779,8.1,8.1,0,0,1-4.785-2.037c-.384-.334-.723-.68-1.072-1.034q-3.932-3.905-7.864-7.822-4-3.978-8-7.949c-.111-.108-.223-.215-.331-.327q-2.364-2.341-4.739-4.678c-1.922-1.891-3.608-3.844-4-6.615v-1.81a18.211,18.211,0,0,1,.653-2.222l1.2-1.192h0l3.359-3.363.108-.1a8.456,8.456,0,0,1,8.756,1.487c1.115.984,2.137,2.068,3.19,3.117L77,88.318c.1.1.2.2.3.292l8.021,7.978c.619.615,1.238,1.234,1.856,1.845.211.207.319.3.727.688l.035-.039c.438-.48.446-.484.673-.707l9.371-9.326.577-.573,11.427-11.369.638-.634,15.713-15.617a8.7,8.7,0,0,1,9.129-2.271,9.224,9.224,0,0,1,1.622.769A8.456,8.456,0,0,1,139.1,71.975Z" transform="translate(-34.647 -34.473)" fill="url(#linear-gradient-2)"/>
        <path id="Path_6965" data-name="Path 6965" d="M85.06,87V88.83c-.158.619-.315,1.234-.519,1.837a9.045,9.045,0,0,1-.5,1.22,6.56,6.56,0,0,1-.638,1.045,8.479,8.479,0,0,1-2.852,2.448,8.731,8.731,0,0,1-1.31.559,8.456,8.456,0,0,1-8.306-1.683c-1.111-.992-2.137-2.087-3.194-3.144l-3.494-3.5-.319-.323q-1.113-1.113-2.229-2.229-3.811-3.844-7.634-7.649c-.207-.211-.319-.3-.723-.692l-.035.039c-.446.484-.45.488-.673.711l-9.416,9.411-.553.546-11.5,11.481-.484.484-3.5,3.49-12.4,12.38a9.01,9.01,0,0,1-6.369,2.752A8.384,8.384,0,0,1,4,116.745a8.5,8.5,0,0,1-4-7.094,8.352,8.352,0,0,1,1.991-5.619c.269-.315.559-.615.85-.907l12.3-12.277,7.122-7.107,1.2-1.192h0L26.836,79.2l.108-.1L46.985,59.053A8.8,8.8,0,0,1,53.3,56.217a7.5,7.5,0,0,1,.922.039,8.1,8.1,0,0,1,4.793,2.064c.384.331.727.684,1.076,1.034q6.823,6.838,13.632,13.692l2.26,2.264.285.285q2.388,2.376,4.785,4.751C82.989,82.235,84.672,84.192,85.06,87Z" transform="translate(0.005 -33.309)" fill="url(#linear-gradient-3)"/>
      </g>
    </g>
  </g>
</svg>
