<svg id="Group_152" data-name="Group 152" xmlns="http://www.w3.org/2000/svg" xmlns:xlink="http://www.w3.org/1999/xlink" width="839.591" height="489.549" viewBox="0 0 839.591 489.549">
  <defs>
    <linearGradient id="linear-gradient" x1="-0.051" y1="0.778" x2="1.03" y2="0.519" gradientUnits="objectBoundingBox">
      <stop offset="0" stop-color="#fff"/>
      <stop offset="0.369" stop-color="#dde9fe"/>
      <stop offset="0.713" stop-color="#f0ebfe"/>
      <stop offset="1" stop-color="#fff"/>
    </linearGradient>
  </defs>
  <g id="Group_101" data-name="Group 101" transform="translate(0 0)" opacity="0.77">
    <path id="Path_6964" data-name="Path 6964" d="M709.756,167.417c-2.12,2.457-4.409,4.81-6.7,7.095L552.67,324.138l-11.4,11.34L513.8,362.766l-3.03,3.03q-77.4,76.96-154.629,153.919a69.147,69.147,0,0,1-56.97,21.922,63.885,63.885,0,0,1-37.746-16.07c-3.03-2.637-5.7-5.367-8.457-8.157q-31.016-30.8-62.033-61.7-31.533-31.381-63.127-62.7c-.878-.85-1.76-1.7-2.61-2.577q-18.647-18.467-37.385-36.9c-15.159-14.919-28.459-30.319-31.533-52.18V287.069a143.662,143.662,0,0,1,5.155-17.524l9.428-9.4h0l26.5-26.531.85-.8a66.7,66.7,0,0,1,69.067,11.732c8.794,7.76,16.859,16.314,25.164,24.591l27.288,27.289c.758.8,1.547,1.547,2.333,2.3L285.34,361.66c4.882,4.85,9.764,9.732,14.642,14.554,1.667,1.635,2.517,2.4,5.732,5.427l.273-.3c3.455-3.788,3.515-3.82,5.307-5.58l73.921-73.569,4.55-4.518L479.9,207.993l5.034-5L608.883,79.8c20.346-20.222,47.543-26.591,72.009-17.917a72.76,72.76,0,0,1,12.795,6.065A66.7,66.7,0,0,1,709.6,167.509Z" transform="translate(114.374 -52.368)" fill="url(#linear-gradient)"/>
    <path id="Path_6965" data-name="Path 6965" d="M671.006,299.058v14.43c-1.242,4.882-2.485,9.732-4.092,14.494a71.338,71.338,0,0,1-3.972,9.62,51.741,51.741,0,0,1-5.034,8.245,66.885,66.885,0,0,1-22.5,19.312,68.876,68.876,0,0,1-10.337,4.409,66.7,66.7,0,0,1-65.52-13.28c-8.762-7.824-16.859-16.462-25.2-24.8L506.794,303.9l-2.517-2.545q-8.778-8.778-17.585-17.584-30.062-30.319-60.217-60.337c-1.635-1.667-2.517-2.4-5.7-5.459l-.273.3c-3.515,3.82-3.547,3.852-5.307,5.612l-74.274,74.238-4.365,4.3L245.873,393l-3.82,3.82-27.621,27.529-97.843,97.659a71.071,71.071,0,0,1-50.24,21.709,66.137,66.137,0,0,1-34.776-10.021A67.067,67.067,0,0,1,.015,477.737a65.884,65.884,0,0,1,15.7-44.328c2.12-2.485,4.409-4.85,6.7-7.155l97.021-96.841,56.177-56.06,9.428-9.4h0L211.726,237.5l.85-.8L370.667,78.6c14.222-14.222,30.5-22.226,49.847-22.374a59.154,59.154,0,0,1,7.275.3A63.852,63.852,0,0,1,465.6,72.813c3.03,2.609,5.732,5.4,8.49,8.157q53.82,53.944,107.531,108l17.829,17.857,2.245,2.245q18.839,18.739,37.746,37.474C654.672,261.468,667.952,276.9,671.006,299.058Z" transform="translate(0.005 -56.215)" fill="url(#linear-gradient)"/>
  </g>
</svg>
