<svg id="Group_164" data-name="Group 164" xmlns="http://www.w3.org/2000/svg" xmlns:xlink="http://www.w3.org/1999/xlink" width="1270.901" height="741.038" viewBox="0 0 1270.901 741.038">
  <defs>
    <linearGradient id="linear-gradient" x1="-0.051" y1="0.778" x2="1.03" y2="0.519" gradientUnits="objectBoundingBox">
      <stop offset="0" stop-color="#fff"/>
      <stop offset="0.369" stop-color="#dde9fe"/>
      <stop offset="0.713" stop-color="#f0ebfe"/>
      <stop offset="1" stop-color="#fff"/>
    </linearGradient>
  </defs>
  <path id="Path_6964" data-name="Path 6964" d="M1045.457,223.572c-3.21,3.719-6.674,7.281-10.145,10.739L807.673,460.8l-17.256,17.165-41.58,41.307-4.587,4.587Q627.082,640.357,510.186,756.852a104.669,104.669,0,0,1-86.237,33.183,96.7,96.7,0,0,1-57.137-24.325c-4.587-3.992-8.628-8.124-12.8-12.347q-46.95-46.629-93.9-93.4-47.733-47.5-95.556-94.913c-1.329-1.286-2.664-2.573-3.95-3.9Q132.379,533.2,104.014,505.3C81.066,482.712,60.935,459.4,56.281,426.31V404.691a217.464,217.464,0,0,1,7.8-26.527l14.271-14.228h0l40.112-40.16,1.286-1.213A100.968,100.968,0,0,1,224.3,340.322c13.312,11.747,25.52,24.695,38.091,37.224L303.7,418.853c1.147,1.213,2.342,2.342,3.531,3.489L403.011,517.6c7.39,7.342,14.78,14.732,22.165,22.031,2.524,2.475,3.81,3.641,8.676,8.215l.413-.461c5.23-5.734,5.321-5.782,8.033-8.446l111.9-111.362,6.887-6.838L697.525,284.993l7.621-7.572L892.763,90.949c30.8-30.61,71.966-40.251,109-27.122a110.14,110.14,0,0,1,19.367,9.18,100.969,100.969,0,0,1,24.094,150.7Z" transform="translate(202.042 -49.42)" fill="url(#linear-gradient)"/>
  <path id="Path_6965" data-name="Path 6965" d="M1015.715,423.811v21.843c-1.881,7.39-3.762,14.732-6.195,21.94a107.982,107.982,0,0,1-6.013,14.562,78.311,78.311,0,0,1-7.62,12.481,101.244,101.244,0,0,1-34.057,29.233,104.271,104.271,0,0,1-15.648,6.674A100.968,100.968,0,0,1,847,510.442c-13.264-11.844-25.52-24.919-38.14-37.546l-41.72-41.762-3.81-3.853q-13.288-13.288-26.618-26.618-45.506-45.894-91.151-91.333c-2.476-2.524-3.81-3.64-8.628-8.264l-.413.461c-5.321,5.782-5.37,5.831-8.033,8.494L516.061,422.4l-6.607,6.516L372.184,566.008,366.4,571.79l-41.811,41.671L176.484,761.288a107.581,107.581,0,0,1-76.049,32.861,100.113,100.113,0,0,1-52.641-15.169A101.521,101.521,0,0,1,.025,694.28,99.73,99.73,0,0,1,23.8,627.18c3.21-3.762,6.674-7.342,10.145-10.831L180.8,469.759,265.84,384.9l14.271-14.228h0L320.5,330.627l1.286-1.214L561.088,90.1c21.527-21.527,46.173-33.644,75.455-33.868a89.543,89.543,0,0,1,11.012.461A96.653,96.653,0,0,1,704.789,81.34c4.587,3.95,8.676,8.167,12.851,12.347q81.467,81.656,162.771,163.488L907.4,284.2l3.4,3.4q28.517,28.365,57.137,56.725C990.99,366.91,1011.092,390.27,1015.715,423.811Z" transform="translate(0.005 -56.215)" fill="url(#linear-gradient)"/>
</svg>
